Poster: 
http://imgr.us/images/q4osanve8uomn1ehlkez.jpg

IMDB : http://www.imdb.com/title/tt1371111/
iMDB Rating : 8.2/10   

Plot:
An exploration of how the actions of individual lives impact one another in the past, present and future, as one soul is shaped from a killer into a hero, and an act of kindness ripples across centuries to inspire a revolution. 


Info:

Format : AVI
Format/Info : Audio Video Interleave
File size : 1.37 GiB
Duration : 2h 39mn
Overall bit rate : 1 235 Kbps
Writing library : VirtualDub build 32842/release

Video
ID : 0
Format : MPEG-4 Visual
Format profile : Simple@L5
Format settings, BVOP : No
Format settings, QPel : No
Format settings, GMC : No warppoints
Format settings, Matrix : Default (H.263)
Codec ID : XVID
Codec ID/Hint : XviD
Duration : 2h 39mn
Bit rate : 1 097 Kbps
Width : 720 pixels
Height : 264 pixels
Display aspect ratio : 2.727
Frame rate : 25.000 fps
Color space : YUV
Chroma subsampling : 4:2:0
Bit depth : 8 bits
Scan type : Progressive
Compression mode : Lossy
Bits/(Pixel*Frame) : 0.231
Stream size : 1.22 GiB (89%)
Writing library : XviD 64

Audio
ID : 1
Format : MPEG Audio
Format version : Version 1
Format profile : Layer 3
Mode : Joint stereo
Mode extension : MS Stereo
Codec ID : 55
Codec ID/Hint : MP3
Duration : 2h 39mn
Bit rate mode : Constant
Bit rate : 128 Kbps
Channel(s) : 2 channels
Sampling rate : 44.1 KHz
Compression mode : Lossy
Stream size : 146 MiB (10%)
Alignment : Split accross interleaves
Interleave, duration : 40 ms (1.00 video frame)
Writing library : LAME3.99r
Encoding settings : -m j -V 4 -q 2 -lowpass 17 -b 128

Notes:
Somewhere around 3 minutes video missing around an hr and 20min in & it's cam...take it or leave it.....  

Screens:
 
http://imgr.us/images/ce3756nd2x1bydf37zo4.png 
http://imgr.us/images/ce3756nd2x1bydf37zo4.png 
http://imgr.us/images/fn0xodkiqpwjc0ifxxb.png 
http://imgr.us/images/4tq3yx7d4tznta8dsdbd.png

